<?xml version="1.0" encoding="UTF-8" standalone="no"?>
<svg
   width="205px"
   height="80px"
   viewBox="0 0 205 80"
   preserveAspectRatio="xMidYMid meet"
   class=""
   version="1.1"
   id="svg4"
   sodipodi:docname="tinbergen-institute-logo-white.svg"
   inkscape:version="1.1.1 (c3084ef, 2021-09-22)"
   xmlns:inkscape="http://www.inkscape.org/namespaces/inkscape"
   xmlns:sodipodi="http://sodipodi.sourceforge.net/DTD/sodipodi-0.dtd"
   xmlns="http://www.w3.org/2000/svg"
   xmlns:svg="http://www.w3.org/2000/svg">
  <defs
     id="defs8" />
  <sodipodi:namedview
     id="namedview6"
     pagecolor="#ffffff"
     bordercolor="#666666"
     borderopacity="1.0"
     inkscape:pageshadow="2"
     inkscape:pageopacity="0.0"
     inkscape:pagecheckerboard="true"
     showgrid="false"
     inkscape:zoom="6.8963574"
     inkscape:cx="79.679745"
     inkscape:cy="46.908822"
     inkscape:window-width="1898"
     inkscape:window-height="1027"
     inkscape:window-x="1492"
     inkscape:window-y="60"
     inkscape:window-maximized="0"
     inkscape:current-layer="svg4" />
  <path
     fill="#2E3D7E"
     fill-rule="evenodd"
     d="M49.708 26.586a27.827 27.827 0 0 1 6.283 17.653c0 7.485-2.95 14.278-7.745 19.296a2.43 2.43 0 0 1-.258-1.13V35.305H33.444v3.795h1.469c1.21 0 2.162.327 2.85.978.686.652 1.03 1.571 1.03 2.759v18.31c0 1.327-.239 2.258-.716 2.793-.478.536-1.3.803-2.465.803h-2.168v3.248h9.32a27.886 27.886 0 0 1-14.768 4.21 27.893 27.893 0 0 1-13.028-3.214c.369.031.745.052 1.135.052 2.238 0 4.248-.536 6.03-1.606 1.784-1.071 3.153-2.59 4.11-4.558.955-1.967 1.468-4.568 1.537-7.805H24.67c-.188 6.076-1.92 9.115-5.195 9.115-1.147 0-2.071-.378-2.772-1.135-.703-.756-1.053-1.822-1.053-3.195V39.077h10.803v-3.771H15.649V19.141a27.897 27.897 0 0 1 12.347-2.865c2.56 0 5.041.344 7.398.987a8.752 8.752 0 0 1 8.188-5.653c4.832 0 8.748 3.912 8.748 8.738a8.708 8.708 0 0 1-2.622 6.238zM59.07 5.243a5.246 5.246 0 0 1-5.249 5.243c-2.9 0-5.25-2.348-5.25-5.243A5.246 5.246 0 0 1 53.822 0c2.9 0 5.25 2.348 5.25 5.243zM12.158 74.757A5.246 5.246 0 0 1 6.908 80C4.01 80 1.66 77.652 1.66 74.757a5.246 5.246 0 0 1 5.249-5.243c2.9 0 5.25 2.348 5.25 5.243zm68.37-52.123h.968v5.52h4.384v1.329h-4.384v8.684c0 .752.179 1.327.536 1.727.357.4.81.6 1.36.6.656 0 1.215-.303 1.678-.91.463-.607.733-1.61.81-3.006h.97c-.059 1.801-.469 3.138-1.23 4.01-.762.871-1.75 1.307-2.966 1.307-1.119 0-1.994-.306-2.626-.917-.632-.612-.948-1.414-.948-2.406v-9.09h-2.358v-1.01c1.075-.184 1.893-.632 2.455-1.345.832-1.069 1.282-2.567 1.35-4.493zm11.131-2.558c.434 0 .815.164 1.144.491.327.328.491.713.491 1.156 0 .434-.159.81-.477 1.127a1.56 1.56 0 0 1-1.143.477c-.444 0-.827-.161-1.15-.484a1.552 1.552 0 0 1-.485-1.135c0-.433.164-.813.492-1.14.328-.328.704-.492 1.128-.492zm-3.761 8.078l5.396-.16v11.647c0 .318.077.544.231.68.223.192.502.289.84.289h1.533v1.083h-7.71V40.61h1.431c.425 0 .736-.104.934-.311.197-.207.297-.508.297-.903V30.87c0-.54-.155-.946-.464-1.221-.309-.275-.767-.412-1.374-.412h-1.114v-1.083zm9.266 0l4.499-.275c.183.848.318 1.84.405 2.977.608-.983 1.324-1.72 2.149-2.211.824-.492 1.757-.737 2.799-.737.897 0 1.65.176 2.257.527.608.352 1.095.908 1.46 1.67.367.76.55 1.613.55 2.557v6.589c0 .491.112.84.333 1.048.222.207.593.31 1.114.31h.955v1.084h-7.146V40.61h.68c.636 0 1.08-.1 1.33-.303.251-.202.377-.506.377-.91V33.6c0-1.262-.194-2.197-.58-2.803-.54-.867-1.36-1.3-2.459-1.3-1.09 0-1.998.438-2.727 1.314-.728.877-1.092 2.018-1.092 3.425v5.014c0 .491.113.84.34 1.048.226.207.6.31 1.122.31h.94v1.084h-7.176V40.61h.94c.473 0 .832-.096 1.078-.289.246-.192.369-.433.369-.722v-8.742c0-.579-.157-1.017-.47-1.315-.313-.299-.765-.449-1.353-.449h-.694v-.939zm21.968-8.078v10.07c.569-.803 1.2-1.405 1.895-1.801a4.493 4.493 0 0 1 2.271-.596c1.592 0 2.937.621 4.037 1.864s1.65 2.88 1.65 4.913c0 2.206-.592 3.986-1.773 5.339-1.182 1.354-2.646 2.03-4.391 2.03-.83 0-1.582-.163-2.257-.49-.675-.328-1.37-.881-2.083-1.66-.55.875-1.08 1.592-1.592 2.15l-.579-.202c.27-1.108.406-2.264.406-3.468V22.923c0-.473-.167-.843-.5-1.113-.332-.27-.803-.405-1.41-.405h-.607v-1.084l4.933-.245zm.984 10.381c-.685.948-1.028 2.513-1.028 4.698 0 2.078.338 3.564 1.013 4.459.675.895 1.558 1.342 2.647 1.342.984 0 1.775-.442 2.373-1.327.753-1.117 1.129-2.71 1.129-4.777 0-2.04-.33-3.52-.991-4.439s-1.488-1.378-2.482-1.378c-1.09 0-1.977.474-2.661 1.422zm13.982 4.56c.048 2.062.434 3.516 1.157 4.364.83.954 1.886 1.43 3.168 1.43 1.89 0 3.41-1.074 4.558-3.222l.94.405c-1.408 2.736-3.443 4.103-6.106 4.103-1.812 0-3.339-.654-4.578-1.965-1.24-1.31-1.859-2.986-1.859-5.028 0-2.197.61-3.972 1.83-5.325 1.22-1.353 2.722-2.03 4.506-2.03 1.312 0 2.445.337 3.4 1.012.955.673 1.674 1.642 2.156 2.904.337.886.516 2.004.535 3.352h-9.707zm5.874-1.026c.346 0 .617-.118.81-.354.193-.236.289-.638.289-1.206 0-1.06-.33-1.96-.991-2.702-.66-.742-1.44-1.113-2.337-1.113-1.003 0-1.854.448-2.553 1.344-.7.896-1.063 2.24-1.092 4.031h5.874zm5.388-5.838l4.875-.245v5.476c.52-1.801 1.148-3.164 1.88-4.089.734-.925 1.64-1.387 2.721-1.387.733 0 1.319.224 1.757.671.44.449.659 1.049.659 1.8 0 .607-.148 1.078-.441 1.416a1.408 1.408 0 0 1-1.107.506c-.434 0-.784-.145-1.049-.434-.265-.289-.398-.679-.398-1.17 0-.318.077-.617.232-.896.144-.25.217-.4.217-.448 0-.145-.092-.217-.276-.217-.395 0-.843.231-1.345.694-.694.645-1.23 1.531-1.606 2.658-.578 1.754-.868 3.155-.868 4.206v2.904c0 .328.116.578.347.751.232.173.628.26 1.187.26h1.721v1.084h-8.42V40.61h1.346c.454 0 .795-.089 1.027-.267.231-.178.347-.392.347-.643v-8.627c0-.655-.14-1.134-.42-1.438-.279-.303-.679-.455-1.2-.455h-1.186v-1.026zm23.429.766c.965-.973 1.852-1.46 2.662-1.46.482 0 .882.155 1.2.463.32.308.478.684.478 1.127 0 .356-.108.653-.325.89-.218.235-.47.353-.76.353-.55 0-.921-.337-1.114-1.012-.077-.288-.207-.433-.39-.433-.328 0-.685.217-1.07.65.413.569.698 1.063.852 1.481.155.42.232.87.232 1.352 0 .838-.203 1.577-.608 2.217-.405.64-1.077 1.207-2.017 1.698-.941.492-1.84.738-2.7.738h-1.576c-1.119 0-1.861.115-2.228.346-.366.241-.55.593-.55 1.055 0 .375.15.665.449.867.3.202.863.303 1.692.303l3.574-.072c1.803 0 3.103.302 3.899.903.796.603 1.194 1.429 1.194 2.479 0 1.156-.454 2.129-1.36 2.918-1.264 1.118-3.15 1.677-5.657 1.677-2.074 0-3.612-.38-4.615-1.142-.79-.597-1.186-1.266-1.186-2.009 0-.568.253-1.088.759-1.56.507-.472 1.358-.824 2.553-1.055-.954-.231-1.673-.571-2.155-1.019a2.186 2.186 0 0 1-.723-1.669c0-.616.195-1.153.585-1.61.391-.459 1.069-.85 2.033-1.179-.82-.452-1.437-1-1.852-1.64-.415-.64-.622-1.375-.622-2.203 0-1.31.516-2.408 1.548-3.295 1.032-.886 2.373-1.33 4.022-1.33a6.6 6.6 0 0 1 1.953.29 6.9 6.9 0 0 1 1.823.881zm-3.805-.245c-.858 0-1.567.315-2.126.946-.56.631-.84 1.515-.84 2.652 0 1.214.28 2.155.84 2.825.559.67 1.273 1.004 2.14 1.004.869 0 1.58-.325 2.134-.975.555-.65.832-1.583.832-2.796 0-1.127-.282-2.019-.846-2.674-.564-.655-1.275-.982-2.134-.982zm.854 13.034c-1.775 0-3.04.245-3.798.736-.757.492-1.135 1.084-1.135 1.778 0 .655.284 1.17.853 1.546.752.5 1.823.751 3.212.751 1.659 0 2.907-.274 3.747-.824.839-.548 1.258-1.16 1.258-1.834 0-.396-.13-.764-.39-1.106-.26-.342-.676-.602-1.245-.78-.568-.178-1.403-.267-2.502-.267zm20.869-6.69h-9.708c.048 2.06.434 3.515 1.158 4.363.83.954 1.885 1.43 3.168 1.43 1.89 0 3.41-1.074 4.557-3.222l.94.405c-1.408 2.736-3.443 4.103-6.105 4.103-1.813 0-3.34-.654-4.579-1.965-1.24-1.31-1.86-2.986-1.86-5.028 0-2.197.611-3.972 1.832-5.325 1.22-1.353 2.722-2.03 4.506-2.03 1.311 0 2.445.337 3.4 1.012.955.673 1.673 1.642 2.155 2.904.338.886.516 2.004.536 3.352zm-9.708-1.027h5.874c.347 0 .617-.118.81-.354.193-.236.29-.638.29-1.206 0-1.06-.33-1.96-.992-2.702-.66-.742-1.44-1.113-2.336-1.113-1.003 0-1.854.448-2.553 1.344-.7.896-1.064 2.24-1.093 4.031zm11.48-5.838l4.499-.274c.183.848.318 1.84.404 2.977.608-.983 1.324-1.72 2.15-2.211.824-.492 1.756-.737 2.798-.737.897 0 1.65.176 2.257.527.608.352 1.095.908 1.461 1.67.367.76.55 1.613.55 2.557v6.589c0 .491.111.84.333 1.048.222.207.593.31 1.114.31H205v1.084h-7.147V40.61h.68c.636 0 1.08-.1 1.33-.303.252-.202.377-.506.377-.91V33.6c0-1.262-.193-2.197-.579-2.803-.54-.867-1.36-1.3-2.459-1.3-1.09 0-1.999.438-2.727 1.314-.728.877-1.093 2.018-1.093 3.425v5.014c0 .491.114.84.34 1.048.227.207.601.31 1.122.31h.94v1.084h-7.175V40.61h.94c.472 0 .832-.096 1.077-.289.247-.192.37-.433.37-.722v-8.742c0-.579-.157-1.017-.47-1.315-.314-.299-.765-.449-1.353-.449h-.695v-.939zM80.454 45.97c.434 0 .815.164 1.143.492.328.327.491.712.491 1.156 0 .433-.158.809-.477 1.127a1.56 1.56 0 0 1-1.143.476c-.443 0-.826-.16-1.15-.484a1.552 1.552 0 0 1-.484-1.134c0-.434.164-.814.492-1.141.327-.328.704-.492 1.128-.492zm-3.762 8.078l5.396-.159v11.646c0 .318.078.545.232.68.222.192.502.289.84.289h1.533v1.084h-7.711v-1.084h1.432c.425 0 .736-.104.933-.31.198-.208.297-.509.297-.904v-8.525c0-.54-.154-.947-.463-1.222-.31-.274-.767-.412-1.375-.412h-1.114v-1.083zm9.266 0l4.5-.275c.183.848.318 1.84.405 2.977.608-.983 1.324-1.72 2.148-2.21.825-.492 1.758-.738 2.8-.738.896 0 1.649.176 2.256.528.608.351 1.095.908 1.461 1.669.367.76.55 1.613.55 2.557v6.59c0 .49.111.84.333 1.047.222.207.593.31 1.114.31h.955v1.084h-7.147v-1.083h.68c.636 0 1.08-.101 1.33-.304.252-.202.377-.505.377-.91v-5.795c0-1.262-.193-2.196-.579-2.803-.54-.867-1.36-1.3-2.459-1.3-1.09 0-1.998.438-2.727 1.314-.728.877-1.092 2.019-1.092 3.425v5.014c0 .492.113.84.34 1.048.226.207.6.31 1.121.31h.94v1.084H86.09v-1.083h.94c.473 0 .832-.097 1.077-.29.247-.192.37-.433.37-.722V56.75c0-.578-.157-1.017-.47-1.315-.314-.298-.765-.448-1.353-.448h-.695v-.94zm19.407 8.439c.599 1.666 1.286 2.82 2.062 3.46.777.64 1.733.961 2.872.961 1.05 0 1.859-.228 2.423-.686.564-.458.846-1.038.846-1.742a1.83 1.83 0 0 0-.311-1.061 1.873 1.873 0 0 0-.863-.68c-.367-.149-1.319-.368-2.855-.657-1.47-.289-2.493-.592-3.072-.91a3.44 3.44 0 0 1-1.354-1.316 3.564 3.564 0 0 1-.485-1.82c0-.992.333-1.893 1-2.702.86-1.03 2.061-1.546 3.607-1.546 1.178 0 2.27.37 3.274 1.112l.957-1.01h.594l.376 4.825h-.969c-.425-1.368-1-2.353-1.725-2.955-.725-.602-1.619-.903-2.682-.903-.917 0-1.638.224-2.16.672-.521.448-.782.994-.782 1.64 0 .57.241 1.04.725 1.417.473.385 1.4.688 2.782.911 1.604.271 2.647.498 3.131.682.791.29 1.404.734 1.839 1.336.434.602.652 1.336.652 2.202 0 1.194-.471 2.205-1.413 3.033-.942.829-2.137 1.242-3.585 1.242-1.343 0-2.589-.443-3.738-1.33l-1.057 1.214h-.768l-.29-5.39h.97zm15.328-13.96h.97v5.52h4.383v1.33h-4.384v8.684c0 .752.179 1.328.536 1.727.357.4.81.6 1.36.6.655 0 1.215-.303 1.678-.91.463-.607.733-1.609.81-3.006h.97c-.059 1.802-.469 3.138-1.23 4.01-.762.872-1.75 1.308-2.966 1.308-1.119 0-1.994-.306-2.626-.918-.632-.611-.948-1.413-.948-2.405v-9.09h-2.358v-1.011c1.075-.183 1.893-.631 2.455-1.344.832-1.07 1.282-2.567 1.35-4.494zm11.132-2.557c.434 0 .815.164 1.144.492.327.327.49.712.49 1.156 0 .433-.158.809-.476 1.127a1.56 1.56 0 0 1-1.143.476c-.444 0-.827-.16-1.15-.484a1.552 1.552 0 0 1-.485-1.134c0-.434.164-.814.492-1.141.328-.328.704-.492 1.128-.492zm-3.761 8.078l5.396-.159v11.646c0 .318.077.545.231.68.223.192.502.289.84.289h1.533v1.084h-7.71v-1.084h1.431c.425 0 .736-.104.934-.31.197-.208.296-.509.296-.904v-8.525c0-.54-.154-.947-.463-1.222-.309-.274-.767-.412-1.374-.412h-1.114v-1.083zm12.839-5.52h.969v5.52h4.384v1.329h-4.384v8.684c0 .752.178 1.328.536 1.727.357.4.81.6 1.36.6.655 0 1.214-.303 1.677-.91.463-.607.734-1.609.81-3.006h.97c-.058 1.802-.468 3.138-1.23 4.01-.761.872-1.75 1.308-2.966 1.308-1.118 0-1.993-.306-2.625-.918-.632-.611-.948-1.413-.948-2.405v-9.09h-2.358v-1.011c1.075-.183 1.893-.631 2.454-1.344.833-1.07 1.283-2.567 1.35-4.494zm12.275 5.274v8.974c0 1.098.277 1.946.83 2.543.553.597 1.268.896 2.144.896 1.078 0 1.994-.436 2.75-1.308.755-.872 1.133-1.963 1.133-3.273v-5.072c0-.462-.166-.82-.499-1.077-.332-.255-.971-.397-1.917-.426v-1.011l4.76-.246v11.112c0 .511.145.903.434 1.178.29.274.694.412 1.215.412h.854v.968l-4.557.101-.29-2.66c-.808.955-1.623 1.672-2.441 2.154-.819.482-1.646.722-2.484.722-1.223 0-2.249-.409-3.077-1.228-.838-.809-1.257-2.182-1.257-4.118v-5.88c0-.521-.207-.916-.621-1.186-.29-.193-.883-.299-1.78-.318v-1.011l4.803-.246zm16.702-5.274h.97v5.52h4.383v1.329h-4.384v8.684c0 .752.179 1.328.536 1.727.357.4.81.6 1.36.6.655 0 1.215-.303 1.677-.91.463-.607.734-1.609.811-3.006h.97c-.058 1.802-.468 3.138-1.23 4.01-.762.872-1.751 1.308-2.966 1.308-1.119 0-1.994-.306-2.626-.918-.632-.611-.948-1.413-.948-2.405v-9.09h-2.358v-1.011c1.075-.183 1.893-.631 2.454-1.344.833-1.07 1.283-2.567 1.351-4.494zm20.348 12.383h-9.708c.048 2.062.434 3.517 1.158 4.364.83.954 1.885 1.431 3.168 1.431 1.89 0 3.41-1.074 4.557-3.222l.94.404c-1.407 2.736-3.443 4.104-6.105 4.104-1.813 0-3.34-.655-4.579-1.965-1.239-1.31-1.858-2.987-1.858-5.029 0-2.196.61-3.971 1.83-5.325 1.22-1.353 2.722-2.03 4.506-2.03 1.312 0 2.445.337 3.4 1.012.955.674 1.673 1.642 2.155 2.904.338.886.516 2.004.536 3.352zm-9.708-1.025h5.874c.347 0 .618-.118.81-.354.193-.236.29-.638.29-1.207 0-1.06-.33-1.96-.992-2.702-.66-.742-1.44-1.113-2.336-1.113-1.003 0-1.854.448-2.553 1.344-.7.896-1.064 2.24-1.093 4.032zM8.82 31.779c-1.83 2.081-4.335 3.391-7.496 3.95a28.029 28.029 0 0 1 11.214-14.803c0 .208 0 .498-.002.936-.001 2.755-1.73 7.66-3.716 9.917zM6.313 59.192c0 1.166.173 2.276.514 3.334A27.824 27.824 0 0 1 0 44.239c0-1.764.171-3.488.484-5.161h5.829v20.114zm29.088-41.92a8.695 8.695 0 0 0-.568 3.076c0 4.826 3.917 8.739 8.749 8.739a8.722 8.722 0 0 0 6.121-2.502 28.012 28.012 0 0 0-14.302-9.312z"
     id="path2"
     style="fill:#ffffff;fill-opacity:1" />
</svg>
