<?xml version="1.0" encoding="UTF-8"?>
<svg xmlns="http://www.w3.org/2000/svg" xmlns:xlink="http://www.w3.org/1999/xlink" width="320pt" height="72pt" viewBox="0 0 320 72" version="1.1">
<defs>
<clipPath id="clip1">
  <path d="M 0 0.546875 L 57 0.546875 L 57 58 L 0 58 Z M 0 0.546875 "/>
</clipPath>
<clipPath id="clip2">
  <path d="M 293 50 L 319.730469 50 L 319.730469 72 L 293 72 Z M 293 50 "/>
</clipPath>
</defs>
<g id="surface1">
<g clip-path="url(#clip1)" clip-rule="nonzero">
<path style=" stroke:none;fill-rule:nonzero;fill:rgb(99.993896%,99.992371%,99.992371%);fill-opacity:1;" d="M 56.691406 57.238281 L 0 57.238281 L 0 0.546875 L 56.691406 0.546875 L 56.691406 57.238281 "/>
</g>
<path style=" stroke:none;fill-rule:nonzero;fill:rgb(1.713562%,2.252197%,2.304077%);fill-opacity:1;" d="M 24.066406 16.6875 L 28.347656 12.40625 L 32.628906 16.6875 L 34.996094 14.320312 L 30.71875 10.039062 L 34.996094 5.757812 L 32.628906 3.386719 L 28.347656 7.667969 L 24.066406 3.386719 L 21.695312 5.757812 L 25.976562 10.039062 L 21.695312 14.320312 L 24.066406 16.6875 "/>
<path style=" stroke:none;fill-rule:nonzero;fill:rgb(1.713562%,2.252197%,2.304077%);fill-opacity:1;" d="M 24.066406 32.445312 L 28.347656 28.164062 L 32.628906 32.445312 L 34.996094 30.078125 L 30.71875 25.792969 L 34.996094 21.515625 L 32.628906 19.144531 L 28.347656 23.425781 L 24.066406 19.144531 L 21.695312 21.515625 L 25.976562 25.792969 L 21.695312 30.078125 L 24.066406 32.445312 "/>
<path style=" stroke:none;fill-rule:nonzero;fill:rgb(1.713562%,2.252197%,2.304077%);fill-opacity:1;" d="M 24.066406 54.375 L 28.347656 50.09375 L 32.628906 54.375 L 34.996094 52.003906 L 30.71875 47.722656 L 34.996094 43.441406 L 32.628906 41.074219 L 28.347656 45.351562 L 24.066406 41.074219 L 21.695312 43.441406 L 25.976562 47.722656 L 21.695312 52.003906 L 24.066406 54.375 "/>
<path style=" stroke:none;fill-rule:nonzero;fill:rgb(1.713562%,2.252197%,2.304077%);fill-opacity:1;" d="M 41.234375 16.625 L 36.308594 16.851562 C 36.308594 16.851562 37.011719 22.054688 36.710938 27.308594 C 36.425781 32.324219 35.636719 33.207031 35.636719 33.207031 C 34.523438 35.296875 31.078125 35.804688 29.316406 35.941406 C 27.546875 36.078125 26.757812 35.984375 26.757812 35.984375 C 26.757812 35.984375 21.675781 35.789062 20.535156 33.421875 C 19.886719 32.070312 19.75 29.425781 19.75 29.425781 C 19.75 29.425781 19.71875 17.019531 19.671875 16.738281 C 19.644531 16.589844 18.644531 16.847656 17.488281 16.839844 C 16.542969 16.839844 15.164062 16.777344 15.164062 16.777344 L 15.574219 25.890625 L 15.519531 31.277344 C 15.519531 31.277344 15.519531 34.164062 16.257812 35.316406 C 17.511719 37.273438 18.902344 37.972656 19.691406 38.34375 C 20.480469 38.71875 21.734375 39.089844 23.128906 39.371094 C 24.523438 39.652344 26.847656 39.792969 29.910156 39.007812 C 32.976562 38.21875 34.332031 36.828125 34.332031 36.828125 L 36.65625 34.644531 L 36.648438 39.804688 L 41.53125 38.371094 C 41.53125 38.371094 40.886719 34.28125 40.890625 27.3125 C 40.898438 20.339844 41.234375 16.625 41.234375 16.625 "/>
<path style=" stroke:none;fill-rule:nonzero;fill:rgb(99.993896%,99.992371%,99.992371%);fill-opacity:1;" d="M 75.089844 5.835938 C 75.089844 2.746094 73.210938 2.746094 71.058594 2.746094 L 70.867188 2.585938 L 70.867188 1.921875 C 70.867188 1.492188 71.140625 1.453125 71.570312 1.453125 C 72.585938 1.453125 75.089844 1.652344 76.929688 1.652344 C 78.882812 1.652344 80.875 1.453125 82.828125 1.453125 L 82.949219 1.570312 L 82.949219 2.585938 L 82.753906 2.746094 L 82.285156 2.746094 C 79.742188 2.746094 78.609375 3.015625 78.609375 5.953125 L 78.609375 17.292969 C 78.609375 22.921875 79.707031 27.34375 86.429688 27.34375 C 93.429688 27.34375 95.695312 23.976562 95.695312 17.367188 L 95.695312 7.203125 C 95.695312 2.746094 95.695312 3.054688 92.257812 2.746094 L 92.097656 2.429688 L 92.097656 1.6875 L 92.21875 1.453125 C 92.921875 1.453125 93.703125 1.652344 96.632812 1.652344 C 98.28125 1.652344 100.351562 1.453125 101.601562 1.453125 L 101.757812 1.6875 L 101.757812 2.507812 L 101.519531 2.746094 C 98.671875 2.746094 97.652344 2.902344 97.652344 4.855469 L 97.652344 18.8125 C 97.652344 25.976562 93.46875 29.609375 86.351562 29.609375 C 80.683594 29.609375 75.089844 27.617188 75.089844 21.085938 L 75.089844 5.835938 "/>
<path style=" stroke:none;fill-rule:nonzero;fill:rgb(99.993896%,99.992371%,99.992371%);fill-opacity:1;" d="M 103.992188 11.929688 C 103.992188 11.34375 103.964844 11.195312 103.84375 10.964844 C 103.585938 10.460938 102.292969 9.410156 101.796875 9.378906 L 100.242188 9.292969 C 100.125 9.292969 100.09375 9 100.09375 8.769531 C 100.09375 8.613281 100.09375 8.386719 100.242188 8.386719 C 101.152344 8.386719 101.851562 8.324219 102.582031 8.324219 C 103.933594 8.324219 106.074219 8.441406 106.597656 8.503906 L 115.480469 19.226562 C 116.824219 20.863281 118.144531 22.390625 120.253906 24.503906 L 120.371094 24.503906 L 120.371094 11.609375 C 120.371094 9.671875 119.667969 9.378906 118.726562 9.351562 L 117.472656 9.292969 C 117.351562 9.292969 117.292969 9 117.292969 8.796875 C 117.292969 8.613281 117.378906 8.324219 117.558594 8.324219 C 118.199219 8.324219 119.726562 8.472656 121.160156 8.472656 C 122.480469 8.472656 123.886719 8.324219 124.707031 8.324219 C 124.855469 8.324219 124.882812 8.441406 124.882812 8.5625 L 124.882812 9.117188 C 124.882812 9.261719 124.820312 9.292969 124.621094 9.292969 L 123.859375 9.292969 C 121.839844 9.292969 121.839844 10.320312 121.839844 12.808594 L 121.839844 29.777344 L 121.132812 29.777344 L 105.308594 11.699219 L 105.308594 25.148438 C 105.308594 27.664062 105.664062 27.953125 108.179688 28.046875 C 108.296875 28.046875 108.386719 28.3125 108.386719 28.542969 C 108.386719 28.777344 108.355469 29.011719 108.269531 29.011719 C 107.710938 29.011719 105.839844 28.867188 104.609375 28.867188 C 103.171875 28.867188 102.523438 29.011719 101.183594 29.011719 C 101.003906 29.011719 100.972656 28.808594 100.972656 28.429688 C 100.972656 28.164062 101.003906 28.046875 101.355469 28.046875 C 102.582031 28.046875 103.992188 27.757812 103.992188 26.257812 L 103.992188 11.929688 "/>
<path style=" stroke:none;fill-rule:nonzero;fill:rgb(99.993896%,99.992371%,99.992371%);fill-opacity:1;" d="M 132.570312 23.59375 C 132.570312 27.867188 132.65625 27.898438 135.53125 28.046875 L 135.679688 28.253906 L 135.679688 28.808594 C 135.679688 28.984375 135.238281 29.011719 134.972656 29.011719 C 134.5625 29.011719 132.601562 28.867188 131.398438 28.867188 C 129.992188 28.867188 128.554688 29.011719 127.035156 29.011719 C 126.917969 28.953125 126.890625 28.777344 126.890625 28.484375 C 126.917969 28.105469 126.976562 28.046875 127.824219 28.046875 C 129.847656 28.046875 129.933594 27.605469 129.933594 25.378906 L 129.933594 11.371094 C 129.933594 9.703125 129.4375 9.292969 126.976562 9.292969 L 126.890625 9.148438 L 126.832031 8.675781 C 126.859375 8.355469 127.125 8.324219 127.300781 8.324219 C 128.089844 8.324219 129.027344 8.472656 131.019531 8.472656 C 132.480469 8.472656 134.242188 8.324219 135.414062 8.324219 L 135.558594 8.53125 L 135.558594 9.058594 L 135.441406 9.234375 L 134.652344 9.292969 C 133.480469 9.378906 132.570312 9.5 132.570312 10.847656 L 132.570312 23.59375 "/>
<path style=" stroke:none;fill-rule:nonzero;fill:rgb(99.993896%,99.992371%,99.992371%);fill-opacity:1;" d="M 139.605469 10.285156 C 139.285156 9.5 138.113281 9.292969 137.289062 9.292969 L 137.117188 9.148438 L 137.117188 8.386719 L 137.4375 8.324219 C 138.671875 8.324219 140.457031 8.472656 141.105469 8.472656 C 142.449219 8.472656 143.765625 8.324219 145.113281 8.324219 L 145.203125 8.414062 L 145.113281 9.234375 L 143.738281 9.351562 C 143.269531 9.378906 142.742188 9.554688 142.742188 9.992188 C 142.742188 10.230469 142.890625 10.609375 143.007812 10.875 L 146.375 19.667969 L 148.28125 24.027344 C 148.484375 24.46875 148.515625 24.558594 148.605469 24.558594 C 148.660156 24.558594 148.746094 24.4375 148.863281 24.09375 L 153.058594 12.984375 C 153.523438 11.726562 153.878906 10.636719 153.847656 10.285156 C 153.816406 9.789062 153.671875 9.527344 152.820312 9.445312 L 151.300781 9.292969 L 151.121094 9.203125 L 151.121094 8.296875 C 152.265625 8.296875 153.40625 8.472656 154.550781 8.472656 C 155.460938 8.472656 157.394531 8.296875 157.597656 8.296875 L 157.832031 8.414062 L 157.832031 9.089844 L 157.570312 9.292969 L 156.660156 9.351562 C 156.070312 9.378906 155.839844 9.671875 155.429688 10.703125 C 152.648438 17.410156 151.972656 19.523438 149.746094 25.175781 L 148.253906 28.984375 C 148.109375 29.394531 148.050781 29.421875 147.84375 29.421875 C 147.574219 29.421875 147.519531 29.332031 147.460938 29.214844 L 139.605469 10.285156 "/>
<path style=" stroke:none;fill-rule:nonzero;fill:rgb(99.993896%,99.992371%,99.992371%);fill-opacity:1;" d="M 162.527344 11.3125 C 162.527344 9.410156 161.09375 9.203125 159.394531 9.203125 C 159.273438 9.203125 159.273438 9.058594 159.273438 8.9375 L 159.273438 8.613281 C 159.273438 8.355469 159.773438 8.324219 160.800781 8.324219 C 161.972656 8.324219 163.289062 8.472656 164.523438 8.472656 C 165.691406 8.472656 166.867188 8.324219 168.039062 8.324219 L 174.21875 8.324219 C 174.453125 8.324219 174.480469 8.59375 174.480469 8.910156 L 174.480469 12.484375 C 174.480469 12.601562 174.425781 12.71875 174.277344 12.71875 C 174.046875 12.71875 173.578125 12.753906 173.546875 12.398438 L 173.457031 11.492188 C 173.277344 9.617188 171.992188 9.292969 170.351562 9.292969 L 167.335938 9.292969 C 165.691406 9.292969 165.164062 9.648438 165.164062 11.871094 L 165.164062 17.175781 C 165.164062 17.261719 165.34375 17.410156 165.402344 17.410156 L 168.855469 17.292969 C 170.613281 17.234375 171.117188 16.675781 171.554688 15.121094 C 171.613281 14.953125 171.699219 14.890625 172.019531 14.890625 C 172.230469 14.890625 172.378906 14.917969 172.378906 15.066406 C 172.378906 15.683594 172.199219 17.03125 172.199219 18 C 172.199219 19.574219 172.378906 20.429688 172.378906 20.921875 C 172.378906 21.101562 172.082031 21.277344 171.90625 21.277344 C 171.671875 21.277344 171.464844 21.1875 171.40625 20.894531 C 171.261719 20.105469 171.261719 19.542969 171.117188 19.136719 C 170.964844 18.703125 170.613281 18.492188 169.734375 18.46875 L 165.574219 18.375 C 165.164062 18.375 165.164062 18.527344 165.164062 18.726562 L 165.164062 25.703125 C 165.164062 27.8125 166.722656 27.867188 168.742188 27.867188 L 170.324219 27.867188 C 171.875 27.867188 172.960938 27.839844 173.695312 27.40625 C 174.339844 27.015625 175.246094 25.230469 175.566406 24.503906 C 175.949219 24.503906 176.449219 24.589844 176.449219 24.792969 C 176.449219 24.882812 176.363281 25.117188 176.300781 25.261719 L 175.480469 28.21875 C 175.246094 29.011719 175.097656 29.011719 174.71875 29.011719 C 171.554688 29.011719 168.445312 28.867188 164.199219 28.867188 C 163.234375 28.867188 160.769531 29.011719 159.273438 29.011719 C 159.1875 29.011719 159.097656 28.71875 159.097656 28.542969 C 159.097656 28.3125 159.160156 28.046875 159.273438 28.046875 C 161.828125 27.929688 162.527344 27.664062 162.527344 24.96875 L 162.527344 11.3125 "/>
<path style=" stroke:none;fill-rule:nonzero;fill:rgb(99.993896%,99.992371%,99.992371%);fill-opacity:1;" d="M 184.484375 17.734375 C 184.867188 17.761719 185.214844 17.789062 185.597656 17.789062 C 187.941406 17.789062 190.871094 16.972656 190.871094 13.511719 C 190.871094 10.929688 189.113281 9.261719 186.535156 9.261719 C 184.542969 9.261719 184.484375 9.734375 184.484375 10.609375 Z M 181.847656 11.488281 C 181.847656 10.027344 181.785156 9.292969 179.941406 9.292969 L 178.742188 9.292969 C 178.566406 9.292969 178.539062 8.96875 178.539062 8.734375 C 178.539062 8.59375 178.625 8.324219 178.742188 8.324219 C 180.4375 8.324219 182.171875 8.414062 183.871094 8.414062 C 185.214844 8.414062 186.535156 8.324219 187.882812 8.324219 C 190.871094 8.324219 193.804688 10.316406 193.804688 13.394531 C 193.804688 16.058594 191.371094 17.847656 189.085938 18.199219 L 189.085938 18.257812 C 190.226562 18.523438 191.425781 20.664062 191.722656 21.128906 L 194.945312 26.054688 C 195.972656 27.605469 196.644531 27.898438 198.402344 27.988281 L 198.578125 28.164062 L 198.578125 28.71875 C 198.578125 28.984375 198.371094 29.011719 198.257812 29.011719 C 197.644531 29.011719 196.734375 28.925781 196.292969 28.925781 C 195.589844 28.925781 194.886719 29.011719 194.183594 29.011719 C 193.511719 29.011719 192.191406 27.050781 190.460938 23.972656 C 188.558594 20.601562 187.441406 18.757812 185.511719 18.757812 C 185.273438 18.757812 184.925781 18.757812 184.484375 18.8125 L 184.484375 26 C 184.484375 27.050781 184.484375 28.046875 185.949219 28.046875 C 187.0625 28.046875 187.5625 28.046875 187.5625 28.28125 C 187.5625 28.835938 187.472656 29.011719 187.035156 29.011719 C 185.511719 29.011719 184.25 28.867188 182.988281 28.867188 C 182.492188 28.867188 179.238281 29.011719 178.832031 29.011719 C 178.652344 29.011719 178.597656 28.632812 178.597656 28.398438 C 178.597656 28.136719 178.714844 28.078125 179.304688 28.046875 C 181.320312 27.953125 181.847656 27.664062 181.847656 25.644531 L 181.847656 11.488281 "/>
<path style=" stroke:none;fill-rule:nonzero;fill:rgb(99.993896%,99.992371%,99.992371%);fill-opacity:1;" d="M 203.21875 18.347656 C 201.109375 17.085938 200.257812 15.914062 200.257812 13.628906 C 200.257812 9.96875 203.25 7.917969 207.199219 7.917969 C 208.316406 7.917969 209.898438 8.300781 210.890625 8.734375 L 211.097656 12.398438 L 211.097656 12.542969 C 211.097656 12.695312 210.808594 12.753906 210.394531 12.753906 C 210.011719 12.753906 209.957031 12.574219 209.929688 12.28125 C 209.722656 10.320312 208.316406 9.058594 206.234375 9.058594 C 204.242188 9.058594 202.691406 10.460938 202.691406 12.34375 C 202.691406 14.449219 203.976562 15.273438 206.90625 16.820312 C 209.808594 18.347656 212.328125 19.695312 212.328125 23.359375 C 212.328125 27.34375 208.726562 29.421875 205.066406 29.421875 C 203.863281 29.421875 201.867188 29.039062 200.753906 28.574219 C 200.523438 28.453125 200.433594 28.078125 200.347656 27.433594 L 199.996094 24.675781 C 199.996094 24.5 200.582031 24.5 200.753906 24.5 C 200.84375 24.5 200.929688 24.558594 200.988281 24.761719 C 201.664062 26.992188 203.1875 28.28125 205.535156 28.28125 C 207.582031 28.28125 209.546875 26.492188 209.546875 24.5 C 209.546875 22.59375 208.460938 21.449219 206.9375 20.542969 L 203.21875 18.347656 "/>
<path style=" stroke:none;fill-rule:nonzero;fill:rgb(99.993896%,99.992371%,99.992371%);fill-opacity:1;" d="M 220.511719 23.59375 C 220.511719 27.867188 220.601562 27.898438 223.472656 28.046875 L 223.621094 28.253906 L 223.621094 28.808594 C 223.621094 28.984375 223.179688 29.011719 222.910156 29.011719 C 222.503906 29.011719 220.542969 28.867188 219.339844 28.867188 C 217.933594 28.867188 216.5 29.011719 214.976562 29.011719 C 214.855469 28.953125 214.828125 28.777344 214.828125 28.484375 C 214.855469 28.105469 214.914062 28.046875 215.765625 28.046875 C 217.789062 28.046875 217.875 27.605469 217.875 25.378906 L 217.875 11.371094 C 217.875 9.703125 217.378906 9.292969 214.914062 9.292969 L 214.828125 9.148438 L 214.769531 8.675781 C 214.800781 8.355469 215.0625 8.324219 215.238281 8.324219 C 216.027344 8.324219 216.964844 8.472656 218.957031 8.472656 C 220.425781 8.472656 222.183594 8.324219 223.355469 8.324219 L 223.503906 8.53125 L 223.503906 9.058594 L 223.386719 9.234375 L 222.589844 9.292969 C 221.421875 9.378906 220.511719 9.5 220.511719 10.847656 L 220.511719 23.59375 "/>
<path style=" stroke:none;fill-rule:nonzero;fill:rgb(99.993896%,99.992371%,99.992371%);fill-opacity:1;" d="M 236.074219 25.882812 C 236.074219 28.046875 237.539062 28.046875 239.355469 28.046875 L 239.535156 28.195312 L 239.535156 28.660156 C 239.535156 29.011719 239.386719 29.011719 238.914062 29.011719 C 238.328125 29.011719 236.894531 28.867188 234.84375 28.867188 C 233.234375 28.867188 230.714844 29.011719 230.007812 29.011719 C 229.949219 28.808594 229.890625 28.660156 229.890625 28.484375 C 229.890625 28.398438 229.921875 28.222656 230.007812 28.164062 L 230.304688 28.046875 L 230.65625 28.046875 C 233.324219 28.046875 233.441406 27.140625 233.441406 24.707031 L 233.441406 10.820312 L 233.351562 9.46875 L 229.425781 9.46875 C 227.199219 9.46875 226.84375 10.875 226.289062 12.753906 C 226.230469 12.925781 226.113281 13.015625 225.9375 13.015625 C 225.527344 13.015625 225.257812 12.894531 225.257812 12.71875 C 225.257812 12.222656 225.613281 9.5 225.613281 7.183594 C 225.613281 7.066406 226.027344 7.066406 226.433594 7.066406 C 227.371094 8.324219 227.667969 8.324219 228.929688 8.324219 L 239.824219 8.324219 C 241.878906 8.324219 242.460938 7.710938 243.195312 6.800781 C 243.398438 6.800781 244.070312 6.800781 244.070312 7.066406 C 244.070312 7.300781 243.488281 9.703125 243.425781 11.816406 C 243.425781 12.136719 243.339844 12.753906 243.195312 12.753906 C 242.933594 12.753906 242.257812 12.601562 242.257812 12.453125 L 242.140625 10.992188 C 242.027344 9.5 241.320312 9.46875 240.121094 9.46875 L 236.074219 9.46875 L 236.074219 25.882812 "/>
<path style=" stroke:none;fill-rule:nonzero;fill:rgb(99.993896%,99.992371%,99.992371%);fill-opacity:1;" d="M 254.117188 19.695312 C 254.117188 19.398438 254.089844 19.019531 253.765625 18.542969 L 247.152344 9.605469 C 246.976562 9.339844 246.714844 9.191406 246.03125 9.164062 L 244.914062 9.101562 L 244.734375 9.015625 L 244.734375 8.246094 L 244.914062 8.160156 L 245.265625 8.160156 C 245.769531 8.160156 248.925781 8.304688 249.484375 8.304688 C 250.222656 8.304688 251.40625 8.160156 252.375 8.160156 C 253.023438 8.160156 253.320312 8.160156 253.320312 8.339844 L 253.320312 8.695312 C 253.320312 8.984375 253.230469 9.132812 253.144531 9.132812 L 251.433594 9.191406 C 251.015625 9.191406 250.753906 9.367188 250.753906 9.691406 C 250.753906 9.8125 250.925781 10.105469 251.226562 10.484375 L 255.445312 16.363281 C 255.679688 16.6875 255.945312 16.980469 256.242188 17.25 C 256.800781 16.714844 259.398438 13.144531 260.667969 11.285156 C 261.140625 10.605469 261.40625 10.046875 261.40625 9.8125 C 261.40625 9.398438 261.167969 9.222656 260.3125 9.191406 L 258.835938 9.132812 C 258.867188 9.132812 258.835938 8.695312 258.835938 8.574219 C 258.835938 8.421875 258.867188 8.246094 259.015625 8.160156 C 260.164062 8.277344 261.582031 8.304688 262.851562 8.304688 C 263.707031 8.304688 265.003906 8.160156 265.386719 8.160156 L 265.566406 8.277344 L 265.566406 8.957031 L 265.449219 9.074219 L 264.355469 9.132812 C 263.410156 9.191406 262.230469 11.195312 261.667969 11.964844 L 256.773438 18.664062 L 256.773438 25.59375 C 256.773438 26.214844 256.800781 26.75 256.863281 26.925781 C 257.097656 27.628906 257.863281 28.019531 258.957031 28.019531 L 259.753906 28.019531 L 260.019531 28.136719 L 260.019531 28.960938 L 259.871094 28.992188 L 259.425781 28.992188 C 258.128906 28.992188 256.863281 28.839844 255.5625 28.839844 C 254.238281 28.839844 252.875 28.992188 251.550781 28.992188 L 251.136719 28.992188 L 250.898438 28.929688 L 250.898438 28.429688 C 250.898438 28.253906 250.957031 28.046875 251.195312 28.019531 L 252.582031 27.867188 C 253.4375 27.78125 254.117188 27.484375 254.117188 26.011719 L 254.117188 19.695312 "/>
<path style=" stroke:none;fill-rule:nonzero;fill:rgb(99.993896%,99.992371%,99.992371%);fill-opacity:1;" d="M 137.820312 58.960938 L 133.472656 47.75 L 133.390625 47.75 L 129.671875 58.960938 Z M 129.15625 60.488281 L 127.433594 66.050781 C 127.117188 67.074219 126.964844 67.972656 126.964844 68.605469 C 126.964844 69.894531 128.804688 70.167969 129.867188 70.167969 C 130.214844 70.167969 130.296875 70.402344 130.296875 70.917969 C 130.296875 71.304688 130.253906 71.46875 129.980469 71.46875 C 129.082031 71.46875 126.21875 71.265625 125.160156 71.265625 C 124.105469 71.265625 122.457031 71.46875 121.277344 71.46875 C 120.496094 71.46875 120.496094 71.34375 120.496094 70.835938 L 120.496094 70.402344 C 120.496094 70.207031 120.84375 70.132812 121.789062 70.050781 C 123.828125 69.855469 124.105469 69.464844 124.851562 67.304688 L 132.609375 44.734375 C 133.390625 44.070312 134.214844 43.164062 135.1875 42.851562 L 145.03125 67.664062 C 145.695312 69.308594 146.402344 70.132812 148.675781 70.132812 C 149.105469 70.132812 149.183594 70.601562 149.183594 71.03125 C 149.183594 71.46875 148.914062 71.46875 148.445312 71.46875 C 147.808594 71.46875 145.304688 71.265625 143.773438 71.265625 C 142.207031 71.265625 140.636719 71.34375 139.074219 71.46875 C 138.488281 71.46875 138.445312 71.34375 138.445312 70.796875 C 138.445312 70.367188 138.679688 70.167969 139.230469 70.167969 C 139.824219 70.167969 141.738281 70.050781 141.738281 69.109375 C 141.738281 68.796875 141.582031 68.167969 141.035156 66.800781 L 138.527344 60.488281 L 129.15625 60.488281 "/>
<path style=" stroke:none;fill-rule:nonzero;fill:rgb(99.993896%,99.992371%,99.992371%);fill-opacity:1;" d="M 91.816406 61.097656 C 91.816406 56.175781 88.449219 51.167969 83.179688 51.167969 C 77.761719 51.167969 75.152344 55.414062 75.152344 60.359375 C 75.152344 65.371094 78.199219 70.554688 83.648438 70.554688 C 89.035156 70.554688 91.816406 66.136719 91.816406 61.097656 M 72.023438 61.328125 C 72.023438 55.207031 77.261719 50.199219 83.328125 50.199219 C 89.472656 50.199219 94.953125 54.417969 94.953125 60.507812 C 94.953125 66.398438 89.269531 71.695312 83.4375 71.695312 C 77.324219 71.695312 72.023438 67.71875 72.023438 61.328125 "/>
<path style=" stroke:none;fill-rule:nonzero;fill:rgb(99.993896%,99.992371%,99.992371%);fill-opacity:1;" d="M 98.535156 53.894531 C 98.535156 52.109375 98.242188 51.726562 96.519531 51.726562 L 96.019531 51.726562 C 95.496094 51.757812 95.261719 51.667969 95.261719 51.488281 C 95.261719 51.253906 95.261719 50.757812 95.585938 50.757812 L 107.585938 50.757812 C 108.582031 50.757812 109.578125 50.613281 110.601562 50.613281 C 110.777344 50.613281 111.015625 50.644531 111.015625 50.878906 L 111.132812 54.183594 C 111.132812 54.386719 111.164062 54.59375 111.164062 54.800781 C 111.164062 54.917969 110.929688 54.972656 110.632812 54.972656 L 110.195312 54.972656 C 110.132812 54.625 110.078125 54.269531 109.992188 53.953125 L 109.726562 53.042969 C 109.40625 51.898438 108.554688 51.726562 107.644531 51.726562 L 103.542969 51.726562 C 101.375 51.726562 101.171875 52.394531 101.171875 54.539062 L 101.171875 59.691406 L 105.511719 59.691406 C 108.023438 59.691406 108.640625 58.988281 108.640625 57.378906 C 108.933594 57.3125 109.226562 57.226562 109.433594 57.226562 C 109.550781 57.226562 109.609375 57.289062 109.609375 57.4375 C 109.609375 57.664062 109.492188 58.105469 109.492188 60.246094 C 109.492188 61.097656 109.609375 62.617188 109.609375 63.261719 C 109.609375 63.523438 109.40625 63.640625 109.082031 63.640625 C 108.847656 63.640625 108.757812 63.382812 108.640625 62.910156 C 108.4375 61.710938 107.851562 60.65625 105.363281 60.65625 L 101.171875 60.65625 L 101.171875 68.332031 C 101.171875 69.46875 101.324219 70.085938 102.816406 70.207031 L 104.339844 70.320312 C 104.484375 70.320312 104.539062 70.5 104.539062 70.699219 C 104.539062 70.9375 104.539062 71.285156 104.222656 71.285156 C 102.023438 71.285156 101.085938 71.140625 99.710938 71.140625 C 98.507812 71.140625 96.34375 71.285156 95.554688 71.285156 C 95.316406 71.285156 95.316406 70.992188 95.316406 70.761719 C 95.316406 70.585938 95.347656 70.320312 95.46875 70.320312 L 96.757812 70.234375 C 98.304688 70.113281 98.535156 69.765625 98.535156 68.039062 L 98.535156 53.894531 "/>
<path style=" stroke:none;fill-rule:nonzero;fill:rgb(99.993896%,99.992371%,99.992371%);fill-opacity:1;" d="M 170.335938 50.691406 C 171.246094 50.691406 172.1875 50.773438 173.128906 50.773438 C 173.867188 50.773438 174.625 50.691406 175.363281 50.691406 C 175.800781 50.691406 175.890625 50.804688 175.890625 50.894531 L 175.890625 51.363281 C 175.890625 51.570312 175.800781 51.71875 175.679688 51.71875 C 175.476562 51.71875 175.15625 51.65625 174.800781 51.65625 C 173.09375 51.65625 173.09375 52.511719 173.09375 54.421875 C 173.09375 56.097656 173.417969 67.09375 173.417969 68.707031 C 173.417969 69.53125 173.832031 70.472656 175.097656 70.472656 C 176.273438 70.472656 176.414062 70.53125 176.414062 70.796875 C 176.414062 71.152344 176.242188 71.441406 176.15625 71.441406 C 174.59375 71.441406 173.363281 71.292969 172.125 71.292969 C 170.894531 71.292969 169.628906 71.441406 168.363281 71.441406 C 168.15625 71.441406 168.128906 71.324219 168.128906 71.152344 L 168.128906 70.855469 C 168.128906 70.5625 168.394531 70.472656 169.746094 70.472656 C 170.335938 70.472656 170.863281 69.769531 170.863281 68.738281 C 170.863281 65.5625 170.746094 58.714844 170.628906 53.6875 C 170.507812 53.660156 170.539062 53.660156 170.539062 53.660156 C 168.894531 57.039062 166.75 61.949219 165.75 64.5625 L 162.980469 71.828125 C 162.957031 71.914062 162.867188 72 162.71875 72 C 162.578125 72 162.453125 71.851562 162.367188 71.441406 C 162.195312 70.703125 161.929688 70 161.628906 69.296875 L 156.074219 55.773438 C 155.867188 55.273438 155.695312 54.921875 155.582031 54.921875 C 155.457031 54.921875 155.457031 55.507812 155.457031 55.832031 C 155.457031 58.15625 155.109375 67.03125 155.109375 68.476562 C 155.109375 69.738281 155.109375 70.472656 157.695312 70.472656 C 157.871094 70.472656 157.898438 70.617188 157.898438 70.96875 C 157.898438 71.089844 157.871094 71.441406 157.753906 71.441406 C 157.339844 71.441406 155.902344 71.292969 154.3125 71.292969 C 152.640625 71.292969 150.992188 71.441406 150.578125 71.441406 C 150.492188 71.441406 150.402344 71.355469 150.402344 71.203125 L 150.402344 70.765625 C 150.402344 70.5 150.640625 70.472656 150.992188 70.472656 C 153.402344 70.472656 153.753906 69.738281 153.753906 67.175781 C 153.753906 65.738281 154.25 54.921875 154.25 53.863281 C 154.25 52.304688 153.488281 51.65625 150.847656 51.65625 C 150.757812 51.65625 150.695312 51.511719 150.695312 51.335938 L 150.695312 50.953125 C 150.695312 50.804688 150.785156 50.691406 150.933594 50.691406 C 152.050781 50.691406 153.109375 50.835938 154.28125 50.835938 C 155.015625 50.835938 155.78125 50.691406 156.519531 50.691406 C 156.726562 50.691406 156.933594 51.160156 157.074219 51.542969 L 163.425781 66.738281 L 163.566406 66.738281 L 170.335938 50.691406 "/>
<path style=" stroke:none;fill-rule:nonzero;fill:rgb(99.993896%,99.992371%,99.992371%);fill-opacity:1;" d="M 180.96875 60.742188 C 178.84375 59.476562 177.992188 58.296875 177.992188 56.011719 C 177.992188 52.332031 180.988281 50.277344 184.957031 50.277344 C 186.078125 50.277344 187.664062 50.65625 188.667969 51.101562 L 188.871094 54.777344 L 188.871094 54.921875 C 188.871094 55.070312 188.574219 55.125 188.160156 55.125 C 187.78125 55.125 187.726562 54.949219 187.695312 54.660156 C 187.488281 52.6875 186.078125 51.421875 183.988281 51.421875 C 181.992188 51.421875 180.433594 52.832031 180.433594 54.71875 C 180.433594 56.832031 181.730469 57.652344 184.667969 59.214844 C 187.582031 60.742188 190.109375 62.09375 190.109375 65.769531 C 190.109375 69.769531 186.488281 71.851562 182.816406 71.851562 C 181.609375 71.851562 179.609375 71.46875 178.492188 71 C 178.257812 70.882812 178.171875 70.5 178.078125 69.855469 L 177.726562 67.09375 C 177.726562 66.917969 178.316406 66.917969 178.492188 66.917969 C 178.585938 66.917969 178.671875 66.972656 178.726562 67.179688 C 179.40625 69.414062 180.9375 70.707031 183.285156 70.707031 C 185.34375 70.707031 187.3125 68.914062 187.3125 66.917969 C 187.3125 65.003906 186.226562 63.855469 184.699219 62.949219 L 180.96875 60.742188 "/>
<path style=" stroke:none;fill-rule:nonzero;fill:rgb(99.993896%,99.992371%,99.992371%);fill-opacity:1;" d="M 202.375 68.375 C 202.375 70.550781 203.84375 70.550781 205.667969 70.550781 L 205.847656 70.695312 L 205.847656 71.167969 C 205.847656 71.519531 205.699219 71.519531 205.226562 71.519531 C 204.640625 71.519531 203.203125 71.371094 201.140625 71.371094 C 199.523438 71.371094 196.996094 71.519531 196.292969 71.519531 C 196.226562 71.3125 196.175781 71.167969 196.175781 70.992188 C 196.175781 70.902344 196.207031 70.726562 196.292969 70.667969 L 196.589844 70.550781 L 196.941406 70.550781 C 199.617188 70.550781 199.734375 69.636719 199.734375 67.199219 L 199.734375 53.265625 L 199.644531 51.914062 L 195.707031 51.914062 C 193.46875 51.914062 193.113281 53.324219 192.558594 55.203125 C 192.5 55.382812 192.382812 55.46875 192.207031 55.46875 C 191.789062 55.46875 191.535156 55.351562 191.535156 55.175781 C 191.535156 54.675781 191.882812 51.941406 191.882812 49.617188 C 191.882812 49.503906 192.292969 49.503906 192.707031 49.503906 C 193.648438 50.769531 193.9375 50.769531 195.203125 50.769531 L 206.136719 50.769531 C 208.195312 50.769531 208.785156 50.148438 209.519531 49.238281 C 209.726562 49.238281 210.402344 49.238281 210.402344 49.503906 C 210.402344 49.738281 209.8125 52.148438 209.753906 54.265625 C 209.753906 54.585938 209.664062 55.203125 209.519531 55.203125 C 209.253906 55.203125 208.582031 55.058594 208.582031 54.910156 L 208.464844 53.441406 C 208.34375 51.941406 207.640625 51.914062 206.433594 51.914062 L 202.375 51.914062 L 202.375 68.375 "/>
<path style=" stroke:none;fill-rule:nonzero;fill:rgb(99.993896%,99.992371%,99.992371%);fill-opacity:1;" d="M 214.714844 53.6875 C 214.714844 51.777344 213.273438 51.570312 211.570312 51.570312 C 211.453125 51.570312 211.453125 51.421875 211.453125 51.304688 L 211.453125 50.980469 C 211.453125 50.71875 211.953125 50.691406 212.980469 50.691406 C 214.15625 50.691406 215.480469 50.835938 216.71875 50.835938 C 217.890625 50.835938 219.066406 50.691406 220.238281 50.691406 L 226.449219 50.691406 C 226.679688 50.691406 226.707031 50.953125 226.707031 51.277344 L 226.707031 54.863281 C 226.707031 54.980469 226.648438 55.097656 226.5 55.097656 C 226.265625 55.097656 225.796875 55.125 225.765625 54.777344 L 225.675781 53.863281 C 225.5 51.980469 224.207031 51.65625 222.566406 51.65625 L 219.535156 51.65625 C 217.890625 51.65625 217.359375 52.011719 217.359375 54.242188 L 217.359375 59.566406 C 217.359375 59.652344 217.535156 59.800781 217.601562 59.800781 L 221.0625 59.683594 C 222.824219 59.621094 223.332031 59.070312 223.769531 57.507812 C 223.828125 57.332031 223.917969 57.269531 224.242188 57.269531 C 224.445312 57.269531 224.589844 57.304688 224.589844 57.449219 C 224.589844 58.070312 224.417969 59.417969 224.417969 60.390625 C 224.417969 61.976562 224.589844 62.828125 224.589844 63.328125 C 224.589844 63.507812 224.300781 63.679688 224.121094 63.679688 C 223.886719 63.679688 223.683594 63.59375 223.621094 63.296875 C 223.476562 62.507812 223.476562 61.949219 223.332031 61.535156 C 223.179688 61.09375 222.824219 60.890625 221.945312 60.859375 L 217.773438 60.773438 C 217.359375 60.773438 217.359375 60.914062 217.359375 61.121094 L 217.359375 68.125 C 217.359375 70.238281 218.917969 70.296875 220.949219 70.296875 L 222.535156 70.296875 C 224.09375 70.296875 225.179688 70.265625 225.914062 69.824219 C 226.566406 69.445312 227.472656 67.652344 227.792969 66.917969 C 228.179688 66.917969 228.675781 67.003906 228.675781 67.207031 C 228.675781 67.300781 228.589844 67.53125 228.53125 67.679688 L 227.707031 70.648438 C 227.472656 71.441406 227.328125 71.441406 226.945312 71.441406 C 223.769531 71.441406 220.652344 71.292969 216.394531 71.292969 C 215.421875 71.292969 212.953125 71.441406 211.453125 71.441406 C 211.363281 71.441406 211.277344 71.152344 211.277344 70.96875 C 211.277344 70.738281 211.332031 70.472656 211.453125 70.472656 C 214.007812 70.355469 214.714844 70.089844 214.714844 67.386719 L 214.714844 53.6875 "/>
<path style=" stroke:none;fill-rule:nonzero;fill:rgb(99.993896%,99.992371%,99.992371%);fill-opacity:1;" d="M 235.8125 60.121094 C 236.195312 60.15625 236.550781 60.183594 236.929688 60.183594 C 239.277344 60.183594 242.222656 59.359375 242.222656 55.890625 C 242.222656 53.304688 240.457031 51.628906 237.871094 51.628906 C 235.871094 51.628906 235.8125 52.097656 235.8125 52.980469 Z M 233.167969 53.863281 C 233.167969 52.394531 233.105469 51.65625 231.253906 51.65625 L 230.046875 51.65625 C 229.871094 51.65625 229.84375 51.335938 229.84375 51.097656 C 229.84375 50.953125 229.933594 50.691406 230.046875 50.691406 C 231.753906 50.691406 233.492188 50.777344 235.195312 50.777344 C 236.550781 50.777344 237.871094 50.691406 239.222656 50.691406 C 242.222656 50.691406 245.160156 52.691406 245.160156 55.773438 C 245.160156 58.449219 242.722656 60.238281 240.429688 60.59375 L 240.429688 60.652344 C 241.574219 60.914062 242.78125 63.0625 243.074219 63.53125 L 246.308594 68.472656 C 247.332031 70.03125 248.011719 70.324219 249.777344 70.414062 L 249.949219 70.585938 L 249.949219 71.152344 C 249.949219 71.410156 249.746094 71.441406 249.628906 71.441406 C 249.007812 71.441406 248.097656 71.351562 247.65625 71.351562 C 246.949219 71.351562 246.246094 71.441406 245.542969 71.441406 C 244.867188 71.441406 243.542969 69.472656 241.808594 66.386719 C 239.898438 63.003906 238.777344 61.152344 236.835938 61.152344 C 236.605469 61.152344 236.25 61.152344 235.8125 61.214844 L 235.8125 68.417969 C 235.8125 69.472656 235.8125 70.472656 237.285156 70.472656 C 238.394531 70.472656 238.902344 70.472656 238.902344 70.707031 C 238.902344 71.265625 238.816406 71.441406 238.367188 71.441406 C 236.835938 71.441406 235.578125 71.292969 234.3125 71.292969 C 233.816406 71.292969 230.554688 71.441406 230.140625 71.441406 C 229.960938 71.441406 229.902344 71.0625 229.902344 70.824219 C 229.902344 70.5625 230.019531 70.5 230.605469 70.472656 C 232.632812 70.382812 233.167969 70.089844 233.167969 68.058594 L 233.167969 53.863281 "/>
<path style=" stroke:none;fill-rule:nonzero;fill:rgb(99.993896%,99.992371%,99.992371%);fill-opacity:1;" d="M 256.902344 67.042969 C 256.902344 70.273438 260.226562 70.273438 261.515625 70.273438 C 265.542969 70.273438 269.832031 66.957031 269.832031 60.808594 C 269.832031 55.574219 267.015625 52.988281 264.980469 51.8125 C 263.574219 51.195312 261.71875 51.050781 260.457031 51.050781 C 258.050781 51.050781 256.902344 51.222656 256.902344 53.109375 Z M 254.253906 53.929688 C 254.253906 52.8125 254.023438 51.667969 252.929688 51.667969 C 252.578125 51.667969 251.640625 51.785156 251.082031 51.785156 C 250.960938 51.785156 250.960938 51.34375 250.960938 51.195312 C 250.960938 51.019531 250.960938 50.929688 251.464844 50.816406 C 253.4375 50.402344 258.132812 50.082031 260.660156 50.082031 C 262.28125 50.082031 263.808594 50.226562 265.25 50.605469 C 269.246094 51.699219 272.980469 55.253906 272.980469 60.660156 C 272.980469 67.949219 266.890625 71.246094 261.308594 71.246094 C 258.515625 71.246094 257.042969 71.125 255.582031 71.125 C 254.105469 71.125 252.640625 71.214844 251.167969 71.246094 C 251.050781 71.246094 251.023438 70.980469 251.023438 70.773438 C 251.023438 70.570312 251.167969 70.273438 251.285156 70.273438 C 252.230469 70.15625 252.988281 70.097656 253.523438 69.742188 C 253.960938 69.449219 254.253906 68.980469 254.253906 68.042969 L 254.253906 53.929688 "/>
<path style=" stroke:none;fill-rule:nonzero;fill:rgb(99.993896%,99.992371%,99.992371%);fill-opacity:1;" d="M 284.703125 62.066406 L 281.4375 53.660156 L 281.375 53.660156 L 278.59375 62.066406 Z M 278.203125 63.210938 L 276.914062 67.386719 C 276.671875 68.148438 276.5625 68.824219 276.5625 69.296875 C 276.5625 70.265625 277.941406 70.472656 278.738281 70.472656 C 278.996094 70.472656 279.058594 70.648438 279.058594 71.03125 C 279.058594 71.324219 279.027344 71.441406 278.824219 71.441406 C 278.144531 71.441406 276.003906 71.292969 275.207031 71.292969 C 274.414062 71.292969 273.179688 71.441406 272.296875 71.441406 C 271.710938 71.441406 271.710938 71.355469 271.710938 70.96875 L 271.710938 70.648438 C 271.710938 70.5 271.976562 70.4375 272.679688 70.382812 C 274.207031 70.238281 274.414062 69.941406 274.972656 68.324219 L 280.789062 51.394531 C 281.375 50.894531 281.996094 50.21875 282.730469 49.980469 L 290.109375 68.589844 C 290.613281 69.824219 291.144531 70.4375 292.84375 70.4375 C 293.171875 70.4375 293.226562 70.796875 293.226562 71.117188 C 293.226562 71.441406 293.023438 71.441406 292.671875 71.441406 C 292.203125 71.441406 290.316406 71.292969 289.171875 71.292969 C 287.992188 71.292969 286.816406 71.355469 285.640625 71.441406 C 285.203125 71.441406 285.171875 71.355469 285.171875 70.9375 C 285.171875 70.617188 285.351562 70.472656 285.757812 70.472656 C 286.199219 70.472656 287.644531 70.382812 287.644531 69.675781 C 287.644531 69.445312 287.527344 68.972656 287.113281 67.945312 L 285.234375 63.210938 L 278.203125 63.210938 "/>
<g clip-path="url(#clip2)" clip-rule="nonzero">
<path style=" stroke:none;fill-rule:nonzero;fill:rgb(99.993896%,99.992371%,99.992371%);fill-opacity:1;" d="M 313.640625 50.691406 C 314.554688 50.691406 315.492188 50.773438 316.433594 50.773438 C 317.164062 50.773438 317.933594 50.691406 318.667969 50.691406 C 319.109375 50.691406 319.195312 50.804688 319.195312 50.894531 L 319.195312 51.363281 C 319.195312 51.570312 319.109375 51.71875 318.996094 51.71875 C 318.785156 51.71875 318.460938 51.65625 318.109375 51.65625 C 316.40625 51.65625 316.40625 52.511719 316.40625 54.421875 C 316.40625 56.097656 316.726562 67.09375 316.726562 68.707031 C 316.726562 69.53125 317.140625 70.472656 318.40625 70.472656 C 319.574219 70.472656 319.730469 70.53125 319.730469 70.796875 C 319.730469 71.152344 319.550781 71.441406 319.460938 71.441406 C 317.902344 71.441406 316.671875 71.292969 315.433594 71.292969 C 314.199219 71.292969 312.9375 71.441406 311.667969 71.441406 C 311.464844 71.441406 311.4375 71.324219 311.4375 71.152344 L 311.4375 70.855469 C 311.4375 70.5625 311.699219 70.472656 313.050781 70.472656 C 313.640625 70.472656 314.164062 69.769531 314.164062 68.738281 C 314.164062 65.5625 314.054688 58.714844 313.9375 53.6875 C 313.820312 53.660156 313.84375 53.660156 313.84375 53.660156 C 312.199219 57.039062 310.054688 61.949219 309.054688 64.5625 L 306.292969 71.828125 C 306.261719 71.914062 306.171875 72 306.027344 72 C 305.878906 72 305.765625 71.851562 305.671875 71.441406 C 305.5 70.703125 305.234375 70 304.9375 69.296875 L 299.382812 55.773438 C 299.175781 55.273438 299.003906 54.921875 298.886719 54.921875 C 298.769531 54.921875 298.769531 55.507812 298.769531 55.832031 C 298.769531 58.15625 298.410156 67.03125 298.410156 68.476562 C 298.410156 69.738281 298.410156 70.472656 301 70.472656 C 301.179688 70.472656 301.203125 70.617188 301.203125 70.96875 C 301.203125 71.089844 301.179688 71.441406 301.054688 71.441406 C 300.648438 71.441406 299.207031 71.292969 297.617188 71.292969 C 295.941406 71.292969 294.292969 71.441406 293.886719 71.441406 C 293.800781 71.441406 293.714844 71.355469 293.714844 71.203125 L 293.714844 70.765625 C 293.714844 70.5 293.945312 70.472656 294.292969 70.472656 C 296.707031 70.472656 297.0625 69.738281 297.0625 67.175781 C 297.0625 65.738281 297.5625 54.921875 297.5625 53.863281 C 297.5625 52.304688 296.800781 51.65625 294.148438 51.65625 C 294.066406 51.65625 294 51.511719 294 51.335938 L 294 50.953125 C 294 50.804688 294.089844 50.691406 294.238281 50.691406 C 295.355469 50.691406 296.414062 50.835938 297.597656 50.835938 C 298.324219 50.835938 299.089844 50.691406 299.824219 50.691406 C 300.03125 50.691406 300.234375 51.160156 300.382812 51.542969 L 306.730469 66.738281 L 306.878906 66.738281 L 313.640625 50.691406 "/>
</g>
</g>
</svg>
